<mxfile host="app.diagrams.net" modified="2021-11-10T19:03:39.615Z" agent="5.0 (Windows NT 10.0; Win64; x64) AppleWebKit/537.36 (KHTML, like Gecko) Chrome/95.0.4638.69 Safari/537.36" etag="87XFgKuuYRd-A38TCd8b" version="15.7.3" type="github">
  <diagram id="KJNuzi2MNlYMxwUjSkjB" name="Page-1">
    <mxGraphModel dx="2031" dy="5683" grid="1" gridSize="10" guides="1" tooltips="1" connect="1" arrows="1" fold="1" page="1" pageScale="1" pageWidth="827" pageHeight="1169" math="0" shadow="0">
      <root>
        <mxCell id="0" />
        <mxCell id="1" parent="0" />
        <mxCell id="ZPk_x2uF7atzedkEOB5t-1" value="Main Screen" style="rounded=0;whiteSpace=wrap;html=1;sketch=1;hachureGap=4;fontFamily=Architects Daughter;fontSource=https%3A%2F%2Ffonts.googleapis.com%2Fcss%3Ffamily%3DArchitects%2BDaughter;fontSize=20;" vertex="1" parent="1">
          <mxGeometry x="753" y="-3540" width="160" height="80" as="geometry" />
        </mxCell>
        <mxCell id="ZPk_x2uF7atzedkEOB5t-3" value="Screens Diagram" style="text;strokeColor=none;fillColor=none;html=1;align=center;verticalAlign=middle;whiteSpace=wrap;rounded=0;sketch=1;hachureGap=4;fontFamily=Architects Daughter;fontSource=https%3A%2F%2Ffonts.googleapis.com%2Fcss%3Ffamily%3DArchitects%2BDaughter;fontSize=20;" vertex="1" parent="1">
          <mxGeometry x="699" y="-3620" width="268" height="30" as="geometry" />
        </mxCell>
        <mxCell id="ZPk_x2uF7atzedkEOB5t-4" value="Single Player Mode" style="rounded=0;whiteSpace=wrap;html=1;sketch=1;hachureGap=4;fontFamily=Architects Daughter;fontSource=https%3A%2F%2Ffonts.googleapis.com%2Fcss%3Ffamily%3DArchitects%2BDaughter;fontSize=20;" vertex="1" parent="1">
          <mxGeometry x="253.5" y="-3213" width="160" height="80" as="geometry" />
        </mxCell>
        <mxCell id="ZPk_x2uF7atzedkEOB5t-5" value="Multiplayer Mode" style="rounded=0;whiteSpace=wrap;html=1;sketch=1;hachureGap=4;fontFamily=Architects Daughter;fontSource=https%3A%2F%2Ffonts.googleapis.com%2Fcss%3Ffamily%3DArchitects%2BDaughter;fontSize=20;" vertex="1" parent="1">
          <mxGeometry x="550" y="-3213" width="160" height="80" as="geometry" />
        </mxCell>
        <mxCell id="ZPk_x2uF7atzedkEOB5t-6" value="Tutorial" style="rounded=0;whiteSpace=wrap;html=1;sketch=1;hachureGap=4;fontFamily=Architects Daughter;fontSource=https%3A%2F%2Ffonts.googleapis.com%2Fcss%3Ffamily%3DArchitects%2BDaughter;fontSize=20;" vertex="1" parent="1">
          <mxGeometry x="850" y="-3213" width="160" height="80" as="geometry" />
        </mxCell>
        <mxCell id="ZPk_x2uF7atzedkEOB5t-7" value="" style="edgeStyle=none;orthogonalLoop=1;jettySize=auto;html=1;rounded=0;sketch=1;hachureGap=4;fontFamily=Architects Daughter;fontSource=https%3A%2F%2Ffonts.googleapis.com%2Fcss%3Ffamily%3DArchitects%2BDaughter;fontSize=16;endArrow=open;startSize=14;endSize=14;sourcePerimeterSpacing=8;targetPerimeterSpacing=8;curved=1;entryX=0.5;entryY=0;entryDx=0;entryDy=0;exitX=0.5;exitY=1;exitDx=0;exitDy=0;" edge="1" parent="1" source="ZPk_x2uF7atzedkEOB5t-1" target="ZPk_x2uF7atzedkEOB5t-4">
          <mxGeometry width="120" relative="1" as="geometry">
            <mxPoint x="483" y="-3235" as="sourcePoint" />
            <mxPoint x="603" y="-3235" as="targetPoint" />
            <Array as="points" />
          </mxGeometry>
        </mxCell>
        <mxCell id="ZPk_x2uF7atzedkEOB5t-8" value="" style="edgeStyle=none;orthogonalLoop=1;jettySize=auto;html=1;rounded=0;sketch=1;hachureGap=4;fontFamily=Architects Daughter;fontSource=https%3A%2F%2Ffonts.googleapis.com%2Fcss%3Ffamily%3DArchitects%2BDaughter;fontSize=16;endArrow=open;startSize=14;endSize=14;sourcePerimeterSpacing=8;targetPerimeterSpacing=8;curved=1;exitX=0.5;exitY=1;exitDx=0;exitDy=0;entryX=0.5;entryY=0;entryDx=0;entryDy=0;" edge="1" parent="1" source="ZPk_x2uF7atzedkEOB5t-1" target="ZPk_x2uF7atzedkEOB5t-5">
          <mxGeometry width="120" relative="1" as="geometry">
            <mxPoint x="483" y="-3235" as="sourcePoint" />
            <mxPoint x="603" y="-3235" as="targetPoint" />
            <Array as="points" />
          </mxGeometry>
        </mxCell>
        <mxCell id="ZPk_x2uF7atzedkEOB5t-9" value="" style="edgeStyle=none;orthogonalLoop=1;jettySize=auto;html=1;rounded=0;sketch=1;hachureGap=4;fontFamily=Architects Daughter;fontSource=https%3A%2F%2Ffonts.googleapis.com%2Fcss%3Ffamily%3DArchitects%2BDaughter;fontSize=16;endArrow=open;startSize=14;endSize=14;sourcePerimeterSpacing=8;targetPerimeterSpacing=8;curved=1;exitX=0.5;exitY=1;exitDx=0;exitDy=0;entryX=0.5;entryY=0;entryDx=0;entryDy=0;" edge="1" parent="1" source="ZPk_x2uF7atzedkEOB5t-1" target="ZPk_x2uF7atzedkEOB5t-6">
          <mxGeometry width="120" relative="1" as="geometry">
            <mxPoint x="483" y="-3235" as="sourcePoint" />
            <mxPoint x="603" y="-3235" as="targetPoint" />
            <Array as="points" />
          </mxGeometry>
        </mxCell>
        <mxCell id="ZPk_x2uF7atzedkEOB5t-12" value="Options" style="rounded=0;whiteSpace=wrap;html=1;sketch=1;hachureGap=4;fontFamily=Architects Daughter;fontSource=https%3A%2F%2Ffonts.googleapis.com%2Fcss%3Ffamily%3DArchitects%2BDaughter;fontSize=20;" vertex="1" parent="1">
          <mxGeometry x="1150" y="-3213" width="160" height="80" as="geometry" />
        </mxCell>
        <mxCell id="ZPk_x2uF7atzedkEOB5t-15" value="" style="endArrow=classic;html=1;rounded=0;exitX=0.5;exitY=1;exitDx=0;exitDy=0;entryX=0.5;entryY=0;entryDx=0;entryDy=0;" edge="1" parent="1" source="ZPk_x2uF7atzedkEOB5t-1" target="ZPk_x2uF7atzedkEOB5t-12">
          <mxGeometry width="50" height="50" relative="1" as="geometry">
            <mxPoint x="446" y="-3110" as="sourcePoint" />
            <mxPoint x="496" y="-3160" as="targetPoint" />
          </mxGeometry>
        </mxCell>
        <mxCell id="ZPk_x2uF7atzedkEOB5t-16" value="New Game" style="rounded=0;whiteSpace=wrap;html=1;sketch=1;hachureGap=4;fontFamily=Architects Daughter;fontSource=https%3A%2F%2Ffonts.googleapis.com%2Fcss%3Ffamily%3DArchitects%2BDaughter;fontSize=20;" vertex="1" parent="1">
          <mxGeometry x="450" y="-3020" width="160" height="80" as="geometry" />
        </mxCell>
        <mxCell id="ZPk_x2uF7atzedkEOB5t-17" value="Connect To Lobby" style="rounded=0;whiteSpace=wrap;html=1;sketch=1;hachureGap=4;fontFamily=Architects Daughter;fontSource=https%3A%2F%2Ffonts.googleapis.com%2Fcss%3Ffamily%3DArchitects%2BDaughter;fontSize=20;" vertex="1" parent="1">
          <mxGeometry x="643" y="-3020" width="160" height="80" as="geometry" />
        </mxCell>
        <mxCell id="ZPk_x2uF7atzedkEOB5t-18" value="" style="endArrow=classic;html=1;rounded=0;exitX=0.5;exitY=1;exitDx=0;exitDy=0;entryX=0.5;entryY=0;entryDx=0;entryDy=0;" edge="1" parent="1" source="ZPk_x2uF7atzedkEOB5t-5" target="ZPk_x2uF7atzedkEOB5t-16">
          <mxGeometry width="50" height="50" relative="1" as="geometry">
            <mxPoint x="1100" y="-3030" as="sourcePoint" />
            <mxPoint x="1150" y="-3080" as="targetPoint" />
          </mxGeometry>
        </mxCell>
        <mxCell id="ZPk_x2uF7atzedkEOB5t-19" value="" style="endArrow=classic;html=1;rounded=0;entryX=0.5;entryY=0;entryDx=0;entryDy=0;exitX=0.5;exitY=1;exitDx=0;exitDy=0;" edge="1" parent="1" source="ZPk_x2uF7atzedkEOB5t-5" target="ZPk_x2uF7atzedkEOB5t-17">
          <mxGeometry width="50" height="50" relative="1" as="geometry">
            <mxPoint x="610" y="-3130" as="sourcePoint" />
            <mxPoint x="513" y="-3050" as="targetPoint" />
          </mxGeometry>
        </mxCell>
      </root>
    </mxGraphModel>
  </diagram>
</mxfile>
